<svg width="141" height="243" viewBox="0 0 141 243" fill="none" xmlns="http://www.w3.org/2000/svg">
<path opacity="0.27" fill-rule="evenodd" clip-rule="evenodd" d="M131.422 142.094C127.187 134.401 121.477 127.618 114.619 122.133C107.762 116.648 99.8903 112.567 91.4551 110.125C84.6652 108.098 77.6209 107.051 70.5351 107.015C61.5039 106.99 52.5672 108.854 44.2991 112.487C50.8931 87.905 66.7351 45.487 98.2991 40.713C99.7398 40.4861 101.084 39.8466 102.169 38.872C103.254 37.8973 104.033 36.6292 104.413 35.221L111.313 10.102C111.601 9.05291 111.665 7.95491 111.501 6.87946C111.336 5.804 110.947 4.77519 110.359 3.86002C109.779 2.95339 109.01 2.18269 108.105 1.60056C107.2 1.01842 106.18 0.638585 105.114 0.48703C102.776 0.16279 100.419 -0.00026753 98.0581 -0.000976562C60.1791 -0.000976562 22.6661 40.258 6.83409 97.899C-2.45491 131.717 -5.17992 182.561 17.7111 214.569C30.5171 232.469 49.2061 242.039 73.2481 242.991C73.3481 242.991 73.4431 242.997 73.5481 242.997C103.213 242.997 129.525 222.652 137.528 193.524C142.316 176.243 140.123 157.773 131.422 142.094Z" fill="#9EB6D2"/>
</svg>
