<?xml version="1.0" standalone="no"?>
<!DOCTYPE svg PUBLIC "-//W3C//DTD SVG 20010904//EN"
 "http://www.w3.org/TR/2001/REC-SVG-20010904/DTD/svg10.dtd">
<svg version="1.0" xmlns="http://www.w3.org/2000/svg"
 width="38.000000pt" height="37.000000pt" viewBox="0 0 38.000000 37.000000"
 preserveAspectRatio="xMidYMid meet">
<metadata>
Created by potrace 1.16, written by Peter Selinger 2001-2019
</metadata>
<g transform="translate(0.000000,37.000000) scale(0.003971,-0.003866)"
fill="#000000" stroke="none">
<path d="M1228 8233 l-478 -3 0 -1413 c0 -778 3 -1657 7 -1955 l6 -542 1041 0
c650 0 1073 4 1126 10 251 31 448 90 670 202 315 158 560 375 751 662 219 329
329 693 329 1088 1 1003 -765 1846 -1769 1947 -97 10 -371 11 -1683 4z m1697
-1306 c108 -38 175 -78 253 -151 84 -78 151 -181 187 -287 26 -75 29 -97 28
-209 0 -107 -3 -136 -25 -203 -63 -190 -194 -337 -375 -419 -115 -52 -167 -58
-505 -58 l-308 0 0 513 c0 283 3 589 7 681 l6 167 326 -3 326 -3 80 -28z"/>
<path d="M6855 8234 c-605 -49 -1151 -369 -1490 -874 -75 -113 -186 -339 -229
-471 -162 -493 -117 -1055 121 -1509 348 -663 1006 -1061 1756 -1060 898 1
1677 609 1897 1481 165 656 -19 1348 -489 1832 -307 317 -690 516 -1121 583
-97 15 -354 25 -445 18z m325 -1299 c181 -48 350 -185 428 -345 58 -117 76
-194 75 -315 0 -207 -82 -382 -242 -518 -262 -224 -669 -207 -915 38 -388 385
-195 1029 344 1150 77 18 227 13 310 -10z"/>
<path d="M8745 3826 c-86 -58 -363 -215 -530 -300 -701 -360 -1512 -623 -2340
-760 -382 -63 -564 -81 -1020 -102 -781 -35 -1505 31 -2258 206 -603 141
-1252 373 -1704 611 -72 38 -134 69 -137 69 -3 0 -6 -348 -6 -774 l0 -774 138
-52 c1119 -426 1950 -611 3022 -671 252 -14 1031 -14 1270 0 826 49 1594 199
2410 471 415 137 916 341 1153 468 l67 36 0 803 c0 442 -3 803 -8 803 -4 0
-30 -15 -57 -34z"/>
</g>
</svg>
