<?xml version="1.0" standalone="no"?>
<!DOCTYPE svg PUBLIC "-//W3C//DTD SVG 20010904//EN"
 "http://www.w3.org/TR/2001/REC-SVG-20010904/DTD/svg10.dtd">
<svg version="1.0" xmlns="http://www.w3.org/2000/svg"
 width="53.000000pt" height="53.000000pt" viewBox="0 0 53.000000 53.000000"
 preserveAspectRatio="xMidYMid meet">
<metadata>
Created by potrace 1.16, written by Peter Selinger 2001-2019
</metadata>
<g transform="translate(0.000000,53.000000) scale(0.010600,-0.010600)"
fill="#000000" stroke="none">
<path d="M2247 4948 c-38 -3 -82 -11 -99 -17 -17 -6 -54 -11 -82 -11 -28 0
-64 -7 -79 -15 -16 -8 -52 -17 -80 -21 -29 -4 -61 -13 -72 -20 -11 -8 -35 -14
-55 -14 -19 0 -48 -9 -65 -20 -16 -11 -42 -20 -56 -20 -15 0 -32 -7 -39 -15
-7 -8 -24 -15 -37 -15 -14 0 -36 -9 -50 -20 -14 -11 -34 -20 -43 -20 -10 0
-23 -6 -29 -14 -7 -8 -27 -17 -46 -20 -19 -4 -35 -11 -35 -15 0 -5 -14 -14
-31 -20 -16 -6 -50 -24 -75 -41 -25 -16 -49 -30 -54 -30 -5 0 -15 -6 -22 -12
-21 -20 -76 -58 -84 -58 -4 0 -37 -25 -75 -55 -37 -30 -71 -55 -75 -55 -10 0
-20 -9 -198 -187 -176 -176 -173 -172 -210 -228 -15 -22 -30 -42 -34 -45 -11
-8 -52 -68 -52 -76 0 -3 -14 -24 -32 -46 -38 -48 -46 -64 -128 -228 -34 -69
-68 -137 -76 -152 -8 -14 -14 -35 -14 -46 0 -11 -7 -25 -15 -32 -8 -7 -15 -24
-15 -39 0 -14 -9 -39 -20 -56 -11 -16 -20 -44 -20 -61 0 -16 -7 -39 -15 -50
-8 -10 -15 -34 -15 -52 0 -18 -9 -58 -20 -89 -11 -32 -20 -78 -20 -103 0 -26
-8 -71 -17 -101 -24 -79 -24 -589 0 -664 9 -27 17 -72 17 -98 0 -26 7 -64 15
-83 8 -19 17 -59 21 -87 4 -29 13 -61 20 -72 8 -11 14 -33 14 -50 0 -17 6 -39
14 -50 7 -11 17 -36 21 -55 4 -19 14 -44 21 -55 8 -11 14 -29 14 -41 0 -12 7
-27 15 -34 8 -7 15 -18 15 -24 0 -6 12 -33 25 -61 14 -27 25 -55 25 -62 0 -6
4 -13 8 -15 5 -1 20 -28 35 -59 14 -31 33 -62 42 -69 8 -7 15 -18 15 -25 0 -6
9 -22 20 -35 11 -13 20 -29 20 -37 0 -7 4 -13 9 -13 5 0 13 -9 16 -20 3 -11
12 -26 18 -32 39 -41 97 -117 97 -127 0 -15 366 -381 380 -381 9 0 75 -48 120
-88 28 -24 135 -91 146 -92 6 0 17 -7 24 -15 7 -9 36 -27 64 -41 28 -14 58
-29 66 -34 8 -6 26 -14 40 -20 14 -5 32 -14 40 -18 65 -36 102 -52 123 -52 14
0 30 -7 37 -15 7 -8 24 -15 39 -15 14 0 40 -9 56 -20 17 -11 44 -20 60 -20 17
0 39 -6 50 -14 11 -7 44 -16 74 -19 29 -4 59 -11 66 -17 8 -6 53 -15 102 -20
48 -4 102 -14 118 -20 21 -9 113 -13 310 -13 232 0 289 3 334 17 30 9 78 16
106 16 28 0 76 9 108 20 31 11 69 20 84 20 16 1 39 7 53 15 14 8 36 14 50 15
14 0 39 9 55 20 17 11 42 20 56 20 15 0 32 7 39 15 7 8 22 15 35 15 18 0 150
58 205 90 8 5 38 21 67 35 28 14 55 30 58 35 4 6 21 17 38 25 18 9 41 21 52
28 38 23 80 52 85 57 21 23 110 90 119 90 19 0 365 352 403 410 20 30 45 64
55 75 31 34 103 145 103 159 0 7 7 20 16 27 9 7 20 22 25 34 5 11 14 29 21 40
23 41 28 51 38 75 6 14 26 56 45 94 19 37 35 76 35 86 0 10 7 23 15 30 8 7 15
24 15 39 0 14 9 41 20 59 11 18 20 45 20 60 1 15 7 38 15 52 8 14 14 37 15 53
0 15 9 53 20 84 11 32 20 78 20 103 0 26 8 71 17 101 25 81 25 599 0 678 -9
30 -17 73 -17 97 0 23 -9 70 -20 104 -11 34 -20 73 -20 85 0 13 -7 36 -15 51
-8 16 -15 39 -15 50 0 12 -9 41 -20 65 -11 24 -20 54 -20 65 0 12 -7 27 -15
34 -8 7 -15 23 -15 35 0 12 -9 34 -20 48 -11 14 -20 31 -20 37 0 7 -7 24 -15
38 -8 15 -19 38 -25 52 -5 14 -14 33 -20 43 -5 9 -15 25 -20 35 -6 9 -15 26
-21 37 -10 20 -27 48 -84 139 -16 26 -40 60 -53 74 -13 15 -40 52 -59 82 -37
56 -385 410 -403 410 -6 0 -49 31 -98 69 -48 38 -97 72 -109 75 -13 4 -23 11
-23 16 0 5 -9 12 -21 15 -11 4 -40 20 -64 36 -24 16 -58 34 -74 40 -17 6 -31
15 -31 20 0 5 -6 9 -13 9 -7 0 -29 9 -50 20 -20 11 -43 20 -51 20 -7 0 -25 9
-39 20 -14 11 -34 20 -44 20 -10 0 -27 6 -38 14 -11 7 -36 17 -55 21 -19 4
-44 14 -55 21 -11 8 -32 14 -48 14 -15 0 -40 6 -55 14 -15 7 -50 16 -79 20
-28 4 -64 13 -80 21 -15 8 -49 15 -75 15 -25 0 -74 7 -107 15 -66 17 -457 26
-584 13z m-1341 -2100 c30 -35 61 -81 68 -103 4 -11 16 -31 27 -45 21 -25 21
-25 36 -5 33 46 63 96 63 104 0 5 12 23 27 40 l27 31 117 0 c134 0 151 -8 129
-60 -7 -16 -16 -30 -20 -30 -5 0 -13 -12 -19 -27 -6 -16 -20 -41 -31 -58 -11
-16 -26 -43 -35 -60 -8 -16 -26 -48 -40 -70 -13 -22 -29 -51 -35 -64 -6 -13
-24 -44 -40 -68 -17 -24 -30 -50 -30 -58 0 -8 -5 -17 -11 -21 -6 -3 -17 -21
-25 -38 -8 -17 -24 -44 -34 -61 -11 -16 -27 -43 -36 -60 -27 -53 -40 -74 -57
-93 -10 -10 -17 -26 -17 -35 0 -8 -12 -25 -26 -36 -23 -18 -41 -21 -135 -21
-59 0 -114 3 -123 6 -18 7 -22 49 -5 60 6 3 17 22 25 40 8 19 19 34 24 34 6 0
10 9 10 19 0 11 7 26 15 35 8 8 20 25 25 38 17 36 35 66 53 86 10 10 17 25 17
32 0 7 7 22 17 32 15 17 15 19 0 36 -10 10 -17 25 -17 33 0 8 -9 22 -20 32
-11 9 -20 23 -20 30 0 7 -16 36 -35 66 -19 29 -35 57 -35 62 0 5 -15 31 -33
57 -18 26 -38 58 -45 72 -6 14 -17 32 -24 42 -9 13 -9 20 1 32 11 13 36 16
130 16 109 0 119 -2 137 -22z m869 2 c22 -11 44 -20 50 -20 15 0 115 -97 115
-112 0 -6 8 -20 18 -31 14 -16 17 -39 17 -137 0 -98 -3 -121 -17 -137 -10 -11
-18 -24 -18 -29 0 -14 -89 -98 -131 -122 -31 -19 -52 -22 -144 -22 -92 0 -110
3 -132 20 -14 11 -31 20 -37 20 -24 1 -76 58 -110 122 -33 61 -36 74 -36 147
0 81 7 102 65 197 20 33 64 66 135 101 60 31 169 32 225 3z m439 10 l26 -10 0
-134 c0 -74 5 -157 11 -184 11 -44 17 -52 54 -70 39 -19 45 -19 71 -6 16 8 39
26 52 39 21 23 22 32 22 184 0 195 -2 191 110 191 110 0 110 0 110 -160 0
-174 -15 -272 -51 -324 -34 -51 -87 -101 -116 -110 -12 -4 -27 -13 -33 -21
-10 -12 -38 -15 -120 -15 -92 0 -111 3 -133 20 -14 11 -29 20 -34 20 -10 0
-78 64 -98 91 -6 8 -21 33 -33 57 -20 40 -22 56 -22 236 0 146 3 196 13 199
22 9 145 7 171 -3z m1190 -19 c64 -30 131 -90 142 -126 4 -11 14 -28 22 -38
24 -28 24 -228 -1 -255 -9 -10 -17 -24 -17 -30 0 -21 -85 -101 -134 -127 -46
-24 -53 -25 -250 -25 -177 0 -205 2 -210 16 -3 9 -6 145 -6 303 0 210 3 290
12 299 8 8 66 12 195 12 182 0 184 0 247 -29z m684 6 c10 -9 24 -17 32 -17 20
0 130 -120 136 -149 3 -14 12 -41 20 -59 18 -41 18 -110 -1 -142 -8 -14 -14
-34 -15 -45 0 -39 -89 -135 -158 -172 -35 -20 -56 -23 -145 -23 -89 0 -108 3
-130 20 -14 11 -30 20 -35 20 -18 0 -122 124 -122 146 0 11 -7 29 -15 40 -9
12 -14 42 -14 84 0 42 5 72 14 84 8 11 15 28 15 39 0 18 65 108 84 116 4 2 16
12 24 22 9 11 24 19 34 19 9 0 20 5 23 11 14 22 53 29 142 26 70 -2 96 -7 111
-20z"/>
<path d="M1616 2636 c-38 -18 -58 -73 -43 -122 11 -36 59 -74 92 -74 29 0 82
38 97 71 18 36 13 67 -15 103 -26 32 -86 43 -131 22z"/>
<path d="M3195 2638 c-3 -8 -5 -55 -3 -104 l3 -89 52 -3 c49 -3 54 -1 92 37
42 42 54 87 31 114 -6 7 -17 21 -24 31 -18 26 -142 37 -151 14z"/>
<path d="M3922 2639 c-49 -21 -66 -54 -57 -110 5 -29 15 -43 46 -63 50 -33 63
-33 110 5 36 28 39 35 39 78 0 37 -5 52 -22 67 -43 38 -69 43 -116 23z"/>
</g>
</svg>
